<svg xmlns="http://www.w3.org/2000/svg" viewBox="0 0 48 48" fill="none">
  <rect width="48" height="48" rx="12" fill="#0b192c" />
  <!-- Back folio layer (digital page) -->
  <path d="M15 13C15 11.8954 15.8954 11 17 11H31C32.1046 11 33 11.8954 33 13V31C33 32.1046 32.1046 33 31 33H17C15.8954 33 15 32.1046 15 31V13Z" fill="#2563eb" fill-opacity="0.35" />
  <!-- Front folio with open spine & digital bookmark/access accent -->
  <path d="M13 17C13 15.3431 14.3431 14 16 14H28C29.6569 14 31 15.3431 31 17V33C31 34.6569 29.6569 36 28 36H16C14.3431 36 13 34.6569 13 33V17Z" fill="#2563eb" />
  <!-- Dynamic digital notch / page angle -->
  <path d="M19 19H25M19 23H25M19 27H23" stroke="white" stroke-width="2" stroke-linecap="round" />
  <!-- Access spark/point dot -->
  <circle cx="34" cy="14" r="3.5" fill="#38bdf8" />
</svg>
